<?xml version="1.0" encoding="UTF-8" standalone="no"?>
<svg
   xmlns:dc="http://purl.org/dc/elements/1.1/"
   xmlns:cc="http://creativecommons.org/ns#"
   xmlns:rdf="http://www.w3.org/1999/02/22-rdf-syntax-ns#"
   xmlns:svg="http://www.w3.org/2000/svg"
   xmlns="http://www.w3.org/2000/svg"
   xmlns:sodipodi="http://sodipodi.sourceforge.net/DTD/sodipodi-0.dtd"
   xmlns:inkscape="http://www.inkscape.org/namespaces/inkscape"
   inkscape:version="1.0 (4035a4fb49, 2020-05-01)"
   sodipodi:docname="logocircle.svg"
   id="svg36"
   xml:space="preserve"
   enable-background="new 0 0 1000 1000"
   viewBox="0 0 1000 1000"
   y="0px"
   x="0px"
   version="1.1"><defs
   id="defs40" /><sodipodi:namedview
   inkscape:current-layer="svg36"
   inkscape:window-maximized="1"
   inkscape:window-y="-7"
   inkscape:window-x="-7"
   inkscape:cy="452.99647"
   inkscape:cx="254.40658"
   inkscape:zoom="0.851"
   showgrid="false"
   id="namedview38"
   inkscape:window-height="1021"
   inkscape:window-width="1920"
   inkscape:pageshadow="2"
   inkscape:pageopacity="0"
   guidetolerance="10"
   gridtolerance="10"
   objecttolerance="10"
   borderopacity="1"
   bordercolor="#666666"
   pagecolor="#ffffff" />
<metadata
   id="metadata26"> Svg Vector Icons : http://www.onlinewebfonts.com/icon <rdf:RDF><cc:Work
     rdf:about=""><dc:format>image/svg+xml</dc:format><dc:type
       rdf:resource="http://purl.org/dc/dcmitype/StillImage" /><dc:title></dc:title></cc:Work></rdf:RDF></metadata>
<circle
   r="500"
   cy="500"
   cx="500.00003"
   id="path42"
   style="fill:#eeeeee;fill-rule:evenodd;stroke-width:1.09014;fill-opacity:1" /><g
   transform="translate(10)"
   id="g34"><g
     id="g32"
     transform="matrix(0.1,0,0,-0.1,0,511)"><path
       id="path28"
       d="m 4261.5,2971.2 c -44,-44 -47.9,-59.4 -36.4,-141.7 19.2,-139.8 134.1,-547.7 222.2,-779.5 42.1,-113 70.9,-210.7 63.2,-218.3 -9.6,-5.7 -101.5,-40.2 -206.8,-74.7 -312.2,-101.5 -708.6,-262.4 -1015,-413.7 -273.9,-134.1 -827.3,-452 -938.4,-540 l -51.7,-42.1 -147.5,122.6 c -291.1,241.3 -632,444.3 -1103.1,653 -339,149.4 -737.3,296.8 -804.3,296.8 -63.2,0 -143.6,-80.4 -143.6,-141.7 0,-68.9 118.7,-369.6 266.2,-672.2 155,-314.1 388.7,-674.1 561,-861.8 L 1049.9,25.7 904.3,-148.5 C 632.4,-472.2 366.2,-922.2 188.1,-1358.9 c -97.7,-239.4 -105.3,-287.3 -49.8,-346.6 67,-72.8 113,-69 373.4,24.9 695.2,252.8 1319.5,584.1 1641.2,869.5 59.4,53.6 113,97.7 118.7,97.7 5.7,0 120.7,-72.8 254.7,-160.9 421.3,-273.8 827.3,-480.7 1327.2,-676 120.6,-47.9 222.2,-88.1 224.1,-90 1.9,-1.9 -28.7,-90 -70.9,-197.2 -93.8,-237.5 -206.8,-624.3 -222.2,-762.2 -11.5,-91.9 -7.7,-107.2 36.4,-151.3 26.8,-26.8 70.9,-49.8 97.7,-49.8 141.7,0 1068.6,463.5 1507.2,752.6 l 103.4,69 181.9,-19.2 c 310.2,-32.6 913.5,-24.9 1196.9,19.2 653,97.7 1294.6,342.8 1823.2,697.1 680,453.7 1208.6,1074.2 1166.4,1363.4 -28.7,180 -312.2,582.2 -612.8,865.6 C 8492,1693.8 7427.2,2099.8 6259,2101.7 c -141.7,0 -178.1,5.7 -210.7,36.4 -61.3,53.6 -363.9,252.8 -557.3,365.8 -358.1,206.8 -1038,517.1 -1133.7,517.1 -24.9,0 -67.1,-23 -95.8,-49.8 z m 674.1,-522.9 C 5288,2274 5604,2086.3 5831.9,1917.8 l 157,-116.8 363.9,-11.5 c 452,-15.3 982.4,-91.9 972.9,-139.8 -1.9,-9.6 -40.2,-78.5 -84.2,-151.3 -161,-264.2 -287.4,-599.4 -354.4,-938.4 -47.9,-235.6 -47.9,-789 -1.9,-1038 61.3,-333.2 191.5,-683.7 354.3,-951.8 44,-70.8 80.4,-136 80.4,-145.5 0,-17.2 -329.4,-86.2 -555.4,-116.8 -216.4,-28.7 -733.5,-26.8 -1057.1,1.9 l -262.4,24.9 -235.6,-153.2 C 4860.9,-2044.5 4204,-2393 4158,-2375.8 c -19.2,7.7 114.9,392.6 208.7,607.1 116.8,262.4 107.2,321.7 -57.5,375.4 -614.7,201.1 -1361.6,576.4 -1834.7,925 -216.4,158.9 -229.8,157 -427.1,-26.8 -279.6,-258.5 -723.9,-522.8 -1269.7,-752.6 -128.3,-53.6 -239.4,-97.7 -245.1,-97.7 -5.8,0 26.8,76.6 74.7,170.5 203,404.1 411.7,708.6 674.1,982.4 216.4,226 216.4,222.1 -47.9,488.3 C 1105.2,424.1 980.7,571.6 906,684.6 770,891.4 511.5,1398.9 538.3,1408.5 c 26.8,9.6 543.9,-216.4 768,-335.1 295.1,-155.2 551.8,-331.4 733.7,-503.8 88.1,-82.3 181.9,-157 208.8,-162.8 38.3,-9.6 84.3,13.4 229.8,113 639.6,436.7 1369.3,785.2 2087.4,997.8 383,114.9 386.8,118.7 249,444.3 -88.1,204.9 -214.5,572.6 -214.5,618.6 0,11.5 5.7,19.2 15.3,19.2 7.7,-0.1 151.3,-69 319.8,-151.4 z m 2928.2,-951.8 c 388.8,-155.1 819.7,-417.5 1133.7,-693.3 206.8,-181.9 455.8,-475 543.9,-637.7 55.5,-107.2 59.4,-120.7 36.4,-176.2 -74.7,-178.1 -496,-628.2 -810.1,-863.7 -191.5,-143.6 -442.4,-300.6 -628.1,-396.4 -151.3,-76.6 -461.5,-208.8 -488.3,-208.8 -28.7,0 -218.3,319.8 -293,492.2 -337.1,783.3 -262.4,1706.4 195.3,2405.4 53.6,80.4 105.3,147.5 116.8,147.5 9.6,0 97.7,-30.7 193.4,-69 z" /><path
       id="path30"
       d="m 8095.5,619.4 c -193.4,-84.3 -239.4,-340.9 -88.1,-492.2 214.5,-216.4 566.9,-23 511.3,279.6 -34.4,180.1 -250.8,289.2 -423.2,212.6 z" /></g></g>
</svg>
